PathFileType	4	(X/Y/Z)	OpenSim_Sub03_EMGStiffKnee_Magnet.trc
DataRate	CameraRate	NumFrames	NumMarkers	Units	OrigDataRate	OrigDataStartFrame	OrigNumFrames
100	100	20	8	m	100	1	7597
Frame#	Time	torso_imu_offset_imu	pelvis_imu_offset_imu	tibia_r_imu_offset_imu	femur_r_imu_offset_imu	tibia_l_imu_offset_imu	femur_l_imu_offset_imu	toes_r_imu_offset_imu	toes_l_imu_offset_imu
				X1	Y1	Z1	X2	Y2	Z2	X3	Y3	Z3	X4	Y4	Z4	X5	Y5	Z5	X6	Y6	Z6	X7	Y7	Z7	X8		Y8	Z8	

1	0	-0.90551691	-0.23058448	0.20009878	-0.72913048	0.24572100	-0.57345052	-0.56685344	-0.59853274	-0.15047551	-0.77400307	-0.38756262	-0.03137595	-0.65304008	0.47986322	0.19306190	-0.71064874	0.34572285	0.32882045	-0.69577447	-0.30412298	-0.46026888	-0.75662985	-0.12342722	-0.34015388
2	0.01000000	-0.90280078	-0.22994757	0.19818197	-0.72824305	0.24488833	-0.58083537	-0.57008431	-0.59395926	-0.14233301	-0.77050380	-0.38851871	-0.03108704	-0.65494106	0.48199982	0.19671909	-0.69986201	0.34775005	0.32918409	-0.69374456	-0.30557421	-0.45796282	-0.75582986	-0.12569167	-0.33644004
3	0.02000000	-0.90078851	-0.22618645	0.19516741	-0.72988567	0.24710457	-0.58098292	-0.56884172	-0.59248832	-0.14480102	-0.76848726	-0.38674356	-0.03698932	-0.65689031	0.47639156	0.19757696	-0.70635460	0.34368547	0.32601553	-0.69466493	-0.30168903	-0.45845497	-0.75540225	-0.12426323	-0.33589860
4	0.03000000	-0.89962489	-0.22667173	0.19778075	-0.72524400	0.24576838	-0.58239740	-0.57034428	-0.59410985	-0.14805354	-0.77280502	-0.38602173	-0.03642755	-0.65464177	0.47752666	0.19165919	-0.70052216	0.34509155	0.32557256	-0.70344442	-0.30189310	-0.46335320	-0.75187499	-0.12527496	-0.33401379
5	0.04000000	-0.90231750	-0.23338619	0.20208438	-0.72419683	0.24673759	-0.58288913	-0.57102025	-0.59700750	-0.14535526	-0.77071336	-0.38660229	-0.02990245	-0.65351604	0.47638003	0.19643590	-0.70991290	0.34460487	0.32585757	-0.69700832	-0.30474357	-0.46107006	-0.75154354	-0.12590733	-0.33009948
6	0.05000000	-0.89814666	-0.23037103	0.19843107	-0.72938495	0.24641555	-0.58120800	-0.56692164	-0.59540638	-0.14604784	-0.76873500	-0.38419556	-0.03273460	-0.65650864	0.47727631	0.19695592	-0.71273572	0.34700904	0.32510117	-0.69597768	-0.30386284	-0.45933791	-0.75650570	-0.12698208	-0.33071336
7	0.06000000	-0.90445154	-0.22588276	0.19820531	-0.72854250	0.24309244	-0.58211249	-0.57409431	-0.59653609	-0.15067300	-0.77085060	-0.38688612	-0.03446459	-0.65265705	0.47808718	0.19714456	-0.70799337	0.34845908	0.32934888	-0.70078200	-0.30100498	-0.45999235	-0.75635073	-0.12062930	-0.33785889
8	0.07000000	-0.90361859	-0.22751574	0.20089163	-0.72767986	0.24632373	-0.57885307	-0.57333315	-0.59611416	-0.15081558	-0.77117004	-0.38863975	-0.03266020	-0.65533457	0.47847764	0.19846429	-0.70809969	0.35012356	0.32792003	-0.69726029	-0.30217682	-0.45824112	-0.75349401	-0.12277626	-0.33553136
9	0.08000000	-0.90511222	-0.22822017	0.20372386	-0.72749537	0.24610468	-0.58638208	-0.57179447	-0.59275292	-0.14557174	-0.77194021	-0.38687659	-0.02922662	-0.65368664	0.47465711	0.19788124	-0.70696161	0.34924396	0.33313198	-0.69643881	-0.30270258	-0.45681204	-0.75255480	-0.12031940	-0.33672697
10	0.09000000	-0.90547360	-0.22857686	0.20113304	-0.72979022	0.24544404	-0.58619462	-0.56950947	-0.59659747	-0.14788162	-0.76803337	-0.38461499	-0.03473228	-0.65073975	0.47474318	0.20020971	-0.70206122	0.34877183	0.33110365	-0.70399993	-0.30498560	-0.46111351	-0.75555026	-0.12302603	-0.33070582
11	0.10000000	-0.90264230	-0.22472065	0.19692277	-0.72706774	0.24358430	-0.58147181	-0.57447388	-0.59362903	-0.15029041	-0.77012859	-0.38356304	-0.03419313	-0.65695437	0.47757353	0.19775791	-0.70415613	0.34676587	0.32175877	-0.69789855	-0.30138406	-0.45854908	-0.74960597	-0.12042828	-0.33695775
12	0.11000000	-0.90221307	-0.22534410	0.20017896	-0.72469321	0.24460516	-0.58330380	-0.57336618	-0.59621968	-0.14667898	-0.77160323	-0.38681395	-0.02866520	-0.65912379	0.47841652	0.19342979	-0.70775268	0.34809943	0.32674314	-0.70111733	-0.30498861	-0.45990298	-0.75414644	-0.12285047	-0.33272131
13	0.12000000	-0.90262215	-0.22581017	0.20257120	-0.72930121	0.24557152	-0.58411775	-0.57141921	-0.59314175	-0.14216718	-0.77130274	-0.39025523	-0.03677420	-0.65842822	0.47610948	0.19702158	-0.70802994	0.34567338	0.33490829	-0.69644434	-0.30649765	-0.46394323	-0.76017035	-0.12111193	-0.33248614
14	0.13000000	-0.90127865	-0.22922371	0.19786386	-0.72793069	0.24521546	-0.58406330	-0.57334898	-0.58944702	-0.14945883	-0.76996250	-0.38893663	-0.03428931	-0.65844533	0.47752798	0.19818781	-0.70641463	0.34336581	0.32952751	-0.69648086	-0.30115676	-0.46134176	-0.75685609	-0.12031817	-0.33510961
15	0.14000000	-0.90764026	-0.22919125	0.19962064	-0.73171173	0.24640254	-0.58353304	-0.57547982	-0.59700879	-0.15123577	-0.76870180	-0.38769178	-0.03071762	-0.66018066	0.47659749	0.20039157	-0.70369521	0.34791092	0.32936094	-0.69852696	-0.30382136	-0.45629002	-0.75302792	-0.12384705	-0.33379477
16	0.15000000	-0.90418932	-0.22690629	0.19364032	-0.72611895	0.24967974	-0.58654615	-0.57449652	-0.59900901	-0.14549621	-0.77242883	-0.39021313	-0.03420668	-0.66150848	0.47565159	0.19759148	-0.70542833	0.34673511	0.32827886	-0.69942114	-0.30380847	-0.45645995	-0.75548689	-0.12075889	-0.33730289
17	0.16000000	-0.90367234	-0.22357561	0.20061795	-0.72424290	0.24506942	-0.58124266	-0.57241643	-0.59169423	-0.14785385	-0.77267343	-0.38833926	-0.02991320	-0.65746892	0.47583546	0.19526271	-0.70410533	0.34980197	0.33090629	-0.70082592	-0.30283924	-0.46039106	-0.76219189	-0.11874947	-0.32926649
18	0.17000000	-0.90305259	-0.22969236	0.20167403	-0.72727719	0.24239959	-0.58022814	-0.57154907	-0.59479652	-0.15201091	-0.76743287	-0.39154682	-0.03488804	-0.65593199	0.47598658	0.19850652	-0.70441998	0.34904505	0.33175402	-0.69696899	-0.30267728	-0.46391524	-0.75500018	-0.12304300	-0.33360596
19	0.18000000	-0.90182314	-0.23483491	0.19890300	-0.72939833	0.24524119	-0.58348235	-0.57328160	-0.59886672	-0.14800359	-0.77039929	-0.38933193	-0.03124157	-0.65718196	0.47444466	0.19400724	-0.69777507	0.35185318	0.32556869	-0.69634953	-0.30337405	-0.46096563	-0.75597340	-0.12221095	-0.33670615
20	0.19000000	-0.90232077	-0.23143128	0.20173132	-0.73030131	0.24339924	-0.58527588	-0.57299239	-0.58897238	-0.14935898	-0.76831716	-0.38965236	-0.03266984	-0.66363439	0.47192807	0.20097293	-0.70519050	0.35162860	0.33253057	-0.69267520	-0.29881368	-0.45924632	-0.75610683	-0.12297926	-0.32846767
